<mxfile host="Electron" agent="Mozilla/5.0 (Windows NT 10.0; Win64; x64) AppleWebKit/537.36 (KHTML, like Gecko) draw.io/28.1.2 Chrome/138.0.7204.243 Electron/37.4.0 Safari/537.36" version="28.1.2">
  <diagram name="Страница — 1" id="CI-XZ7B0rQpCabkf-w5-">
    <mxGraphModel dx="4752" dy="3090" grid="1" gridSize="10" guides="1" tooltips="1" connect="1" arrows="1" fold="1" page="1" pageScale="1" pageWidth="827" pageHeight="1169" background="none" math="0" shadow="0">
      <root>
        <mxCell id="0" />
        <mxCell id="1" parent="0" />
        <mxCell id="TmZbyOTy4tZnF4ygVeuB-1" value="Пушкин" style="ellipse;whiteSpace=wrap;html=1;labelBackgroundColor=none;" parent="1" vertex="1">
          <mxGeometry x="910" y="1089" width="120" height="80" as="geometry" />
        </mxCell>
        <mxCell id="TmZbyOTy4tZnF4ygVeuB-8" style="edgeStyle=none;rounded=0;orthogonalLoop=1;jettySize=auto;html=1;entryX=0.5;entryY=0;entryDx=0;entryDy=0;exitX=0.5;exitY=1;exitDx=0;exitDy=0;" parent="1" source="jKoZZrpG-GYCvXaW42Ux-28" target="TmZbyOTy4tZnF4ygVeuB-10" edge="1">
          <mxGeometry relative="1" as="geometry">
            <mxPoint x="586.2631578947369" y="1758.5300000000002" as="targetPoint" />
            <mxPoint x="610" y="1688.53" as="sourcePoint" />
          </mxGeometry>
        </mxCell>
        <mxCell id="TmZbyOTy4tZnF4ygVeuB-11" value="Has part" style="edgeLabel;html=1;align=center;verticalAlign=middle;resizable=0;points=[];" parent="TmZbyOTy4tZnF4ygVeuB-8" vertex="1" connectable="0">
          <mxGeometry x="-0.0006" y="4" relative="1" as="geometry">
            <mxPoint as="offset" />
          </mxGeometry>
        </mxCell>
        <mxCell id="TmZbyOTy4tZnF4ygVeuB-2" value="центр города" style="ellipse;whiteSpace=wrap;html=1;labelBackgroundColor=none;" parent="1" vertex="1">
          <mxGeometry x="336" y="1150" width="120" height="80" as="geometry" />
        </mxCell>
        <mxCell id="TmZbyOTy4tZnF4ygVeuB-6" value="&lt;font style=&quot;font-size: 24px;&quot;&gt;Место&lt;/font&gt;" style="rounded=0;orthogonalLoop=1;jettySize=auto;html=1;exitX=0.5;exitY=1;exitDx=0;exitDy=0;entryX=0.5;entryY=0;entryDx=0;entryDy=0;" parent="1" source="TmZbyOTy4tZnF4ygVeuB-3" target="TmZbyOTy4tZnF4ygVeuB-2" edge="1">
          <mxGeometry relative="1" as="geometry" />
        </mxCell>
        <mxCell id="TmZbyOTy4tZnF4ygVeuB-7" value="Реципилент&lt;div&gt;&lt;br&gt;&lt;/div&gt;" style="rounded=0;orthogonalLoop=1;jettySize=auto;html=1;exitX=1;exitY=1;exitDx=0;exitDy=0;entryX=0.5;entryY=0;entryDx=0;entryDy=0;" parent="1" source="TmZbyOTy4tZnF4ygVeuB-3" target="TmZbyOTy4tZnF4ygVeuB-4" edge="1">
          <mxGeometry relative="1" as="geometry" />
        </mxCell>
        <mxCell id="TmZbyOTy4tZnF4ygVeuB-27" style="edgeStyle=none;rounded=0;orthogonalLoop=1;jettySize=auto;html=1;exitX=1;exitY=1;exitDx=0;exitDy=0;entryX=0.5;entryY=0;entryDx=0;entryDy=0;" parent="1" source="TmZbyOTy4tZnF4ygVeuB-3" target="TmZbyOTy4tZnF4ygVeuB-30" edge="1">
          <mxGeometry relative="1" as="geometry">
            <mxPoint x="1040" y="430" as="targetPoint" />
          </mxGeometry>
        </mxCell>
        <mxCell id="TmZbyOTy4tZnF4ygVeuB-32" value="Агент" style="edgeLabel;html=1;align=center;verticalAlign=middle;resizable=0;points=[];" parent="TmZbyOTy4tZnF4ygVeuB-27" vertex="1" connectable="0">
          <mxGeometry x="0.0364" relative="1" as="geometry">
            <mxPoint as="offset" />
          </mxGeometry>
        </mxCell>
        <mxCell id="TmZbyOTy4tZnF4ygVeuB-38" style="edgeStyle=none;rounded=0;orthogonalLoop=1;jettySize=auto;html=1;exitX=0.5;exitY=1;exitDx=0;exitDy=0;entryX=0.5;entryY=0;entryDx=0;entryDy=0;" parent="1" source="TmZbyOTy4tZnF4ygVeuB-3" target="TmZbyOTy4tZnF4ygVeuB-40" edge="1">
          <mxGeometry relative="1" as="geometry">
            <mxPoint x="370" y="860" as="targetPoint" />
          </mxGeometry>
        </mxCell>
        <mxCell id="TmZbyOTy4tZnF4ygVeuB-39" value="Время" style="edgeLabel;html=1;align=center;verticalAlign=middle;resizable=0;points=[];" parent="TmZbyOTy4tZnF4ygVeuB-38" vertex="1" connectable="0">
          <mxGeometry x="-0.0048" y="3" relative="1" as="geometry">
            <mxPoint y="-1" as="offset" />
          </mxGeometry>
        </mxCell>
        <mxCell id="TmZbyOTy4tZnF4ygVeuB-3" value="&lt;font style=&quot;font-size: 24px;&quot;&gt;поставит&lt;/font&gt;" style="ellipse;whiteSpace=wrap;html=1;labelBackgroundColor=none;" parent="1" vertex="1">
          <mxGeometry x="445" y="200" width="290" height="180" as="geometry" />
        </mxCell>
        <mxCell id="TmZbyOTy4tZnF4ygVeuB-25" value="Посвящен" style="edgeStyle=none;rounded=0;orthogonalLoop=1;jettySize=auto;html=1;exitX=0.5;exitY=1;exitDx=0;exitDy=0;entryX=0.5;entryY=0;entryDx=0;entryDy=0;" parent="1" source="TmZbyOTy4tZnF4ygVeuB-4" target="TmZbyOTy4tZnF4ygVeuB-1" edge="1">
          <mxGeometry relative="1" as="geometry">
            <mxPoint x="940" y="800" as="targetPoint" />
          </mxGeometry>
        </mxCell>
        <mxCell id="TmZbyOTy4tZnF4ygVeuB-4" value="Памятник" style="ellipse;whiteSpace=wrap;html=1;labelBackgroundColor=none;" parent="1" vertex="1">
          <mxGeometry x="720" y="680" width="120" height="80" as="geometry" />
        </mxCell>
        <mxCell id="TmZbyOTy4tZnF4ygVeuB-5" value="&lt;font style=&quot;font-size: 40px;&quot;&gt;Через год в центре города муниципалитет поставит памятник Пушкину.&amp;nbsp;&lt;/font&gt;" style="rounded=0;whiteSpace=wrap;html=1;labelBackgroundColor=none;" parent="1" vertex="1">
          <mxGeometry x="-29" y="50" width="1359" height="70" as="geometry" />
        </mxCell>
        <mxCell id="TmZbyOTy4tZnF4ygVeuB-10" value="Дом" style="ellipse;whiteSpace=wrap;html=1;labelBackgroundColor=none;" parent="1" vertex="1">
          <mxGeometry x="260" y="1730.1599999999999" width="120" height="80" as="geometry" />
        </mxCell>
        <mxCell id="TmZbyOTy4tZnF4ygVeuB-12" style="edgeStyle=none;rounded=0;orthogonalLoop=1;jettySize=auto;html=1;entryX=0.5;entryY=0;entryDx=0;entryDy=0;exitX=0.5;exitY=1;exitDx=0;exitDy=0;" parent="1" target="TmZbyOTy4tZnF4ygVeuB-14" edge="1" source="jKoZZrpG-GYCvXaW42Ux-28">
          <mxGeometry relative="1" as="geometry">
            <mxPoint x="316.2631578947369" y="1778.5300000000002" as="targetPoint" />
            <mxPoint x="600" y="1689" as="sourcePoint" />
          </mxGeometry>
        </mxCell>
        <mxCell id="TmZbyOTy4tZnF4ygVeuB-13" value="Has part" style="edgeLabel;html=1;align=center;verticalAlign=middle;resizable=0;points=[];" parent="TmZbyOTy4tZnF4ygVeuB-12" vertex="1" connectable="0">
          <mxGeometry x="-0.0006" y="4" relative="1" as="geometry">
            <mxPoint as="offset" />
          </mxGeometry>
        </mxCell>
        <mxCell id="TmZbyOTy4tZnF4ygVeuB-14" value="Район" style="ellipse;whiteSpace=wrap;html=1;labelBackgroundColor=none;" parent="1" vertex="1">
          <mxGeometry x="160" y="1850.1599999999996" width="120" height="80" as="geometry" />
        </mxCell>
        <mxCell id="TmZbyOTy4tZnF4ygVeuB-15" style="edgeStyle=none;rounded=0;orthogonalLoop=1;jettySize=auto;html=1;entryX=0.5;entryY=0;entryDx=0;entryDy=0;exitX=0.5;exitY=1;exitDx=0;exitDy=0;" parent="1" source="jKoZZrpG-GYCvXaW42Ux-28" target="TmZbyOTy4tZnF4ygVeuB-17" edge="1">
          <mxGeometry relative="1" as="geometry">
            <mxPoint x="275.2631578947369" y="1848.5300000000002" as="targetPoint" />
            <mxPoint x="610" y="1688.53" as="sourcePoint" />
          </mxGeometry>
        </mxCell>
        <mxCell id="TmZbyOTy4tZnF4ygVeuB-16" value="Part of" style="edgeLabel;html=1;align=center;verticalAlign=middle;resizable=0;points=[];" parent="TmZbyOTy4tZnF4ygVeuB-15" vertex="1" connectable="0">
          <mxGeometry x="-0.0006" y="4" relative="1" as="geometry">
            <mxPoint as="offset" />
          </mxGeometry>
        </mxCell>
        <mxCell id="TmZbyOTy4tZnF4ygVeuB-17" value="Страна" style="ellipse;whiteSpace=wrap;html=1;labelBackgroundColor=none;" parent="1" vertex="1">
          <mxGeometry x="31" y="1940.1599999999996" width="120" height="80" as="geometry" />
        </mxCell>
        <mxCell id="TmZbyOTy4tZnF4ygVeuB-18" style="edgeStyle=none;rounded=0;orthogonalLoop=1;jettySize=auto;html=1;entryX=0.5;entryY=0;entryDx=0;entryDy=0;exitX=0.5;exitY=1;exitDx=0;exitDy=0;" parent="1" source="jKoZZrpG-GYCvXaW42Ux-28" target="TmZbyOTy4tZnF4ygVeuB-20" edge="1">
          <mxGeometry relative="1" as="geometry">
            <mxPoint x="116.26315789473688" y="1578.5300000000002" as="targetPoint" />
            <mxPoint x="610" y="1688.53" as="sourcePoint" />
          </mxGeometry>
        </mxCell>
        <mxCell id="TmZbyOTy4tZnF4ygVeuB-19" value="Part of" style="edgeLabel;html=1;align=center;verticalAlign=middle;resizable=0;points=[];" parent="TmZbyOTy4tZnF4ygVeuB-18" vertex="1" connectable="0">
          <mxGeometry x="-0.0006" y="4" relative="1" as="geometry">
            <mxPoint as="offset" />
          </mxGeometry>
        </mxCell>
        <mxCell id="TmZbyOTy4tZnF4ygVeuB-20" value="Область" style="ellipse;whiteSpace=wrap;html=1;labelBackgroundColor=none;" parent="1" vertex="1">
          <mxGeometry x="-100" y="2040.1599999999996" width="120" height="80" as="geometry" />
        </mxCell>
        <mxCell id="TmZbyOTy4tZnF4ygVeuB-28" value="Правительство" style="ellipse;whiteSpace=wrap;html=1;labelBackgroundColor=none;" parent="1" vertex="1">
          <mxGeometry x="1370" y="840" width="120" height="80" as="geometry" />
        </mxCell>
        <mxCell id="TmZbyOTy4tZnF4ygVeuB-29" style="edgeStyle=none;rounded=0;orthogonalLoop=1;jettySize=auto;html=1;entryX=0.5;entryY=0;entryDx=0;entryDy=0;exitX=0.5;exitY=1;exitDx=0;exitDy=0;" parent="1" source="TmZbyOTy4tZnF4ygVeuB-30" target="TmZbyOTy4tZnF4ygVeuB-28" edge="1">
          <mxGeometry relative="1" as="geometry">
            <mxPoint x="1363" y="625" as="targetPoint" />
            <mxPoint x="1130" y="510" as="sourcePoint" />
          </mxGeometry>
        </mxCell>
        <mxCell id="TmZbyOTy4tZnF4ygVeuB-33" value="Part of" style="edgeLabel;html=1;align=center;verticalAlign=middle;resizable=0;points=[];" parent="TmZbyOTy4tZnF4ygVeuB-29" vertex="1" connectable="0">
          <mxGeometry x="-0.0841" y="3" relative="1" as="geometry">
            <mxPoint as="offset" />
          </mxGeometry>
        </mxCell>
        <mxCell id="jKoZZrpG-GYCvXaW42Ux-104" value="Has part" style="rounded=0;orthogonalLoop=1;jettySize=auto;html=1;exitX=0.5;exitY=1;exitDx=0;exitDy=0;entryX=0.5;entryY=0;entryDx=0;entryDy=0;" edge="1" parent="1" source="TmZbyOTy4tZnF4ygVeuB-30" target="jKoZZrpG-GYCvXaW42Ux-103">
          <mxGeometry relative="1" as="geometry" />
        </mxCell>
        <mxCell id="TmZbyOTy4tZnF4ygVeuB-30" value="Муниципалитет" style="ellipse;whiteSpace=wrap;html=1;labelBackgroundColor=none;" parent="1" vertex="1">
          <mxGeometry x="1080" y="420" width="120" height="80" as="geometry" />
        </mxCell>
        <mxCell id="jKoZZrpG-GYCvXaW42Ux-2" value="AKO" style="rounded=0;orthogonalLoop=1;jettySize=auto;html=1;exitX=0.5;exitY=1;exitDx=0;exitDy=0;entryX=0.5;entryY=0;entryDx=0;entryDy=0;" edge="1" parent="1" source="TmZbyOTy4tZnF4ygVeuB-40" target="jKoZZrpG-GYCvXaW42Ux-3">
          <mxGeometry relative="1" as="geometry">
            <mxPoint x="49" y="939.66" as="targetPoint" />
          </mxGeometry>
        </mxCell>
        <mxCell id="TmZbyOTy4tZnF4ygVeuB-40" value="Через год" style="ellipse;whiteSpace=wrap;html=1;labelBackgroundColor=none;" parent="1" vertex="1">
          <mxGeometry x="216" y="620" width="120" height="80" as="geometry" />
        </mxCell>
        <mxCell id="jKoZZrpG-GYCvXaW42Ux-3" value="Будующее" style="ellipse;whiteSpace=wrap;html=1;" vertex="1" parent="1">
          <mxGeometry x="-270" y="1079.66" width="120" height="80" as="geometry" />
        </mxCell>
        <mxCell id="jKoZZrpG-GYCvXaW42Ux-4" value="ISA" style="rounded=0;orthogonalLoop=1;jettySize=auto;html=1;exitX=0.5;exitY=1;exitDx=0;exitDy=0;entryX=0.5;entryY=0;entryDx=0;entryDy=0;" edge="1" parent="1" target="jKoZZrpG-GYCvXaW42Ux-5" source="TmZbyOTy4tZnF4ygVeuB-40">
          <mxGeometry x="0.0045" relative="1" as="geometry">
            <mxPoint x="-21" y="1089.66" as="targetPoint" />
            <mxPoint x="-81" y="879.66" as="sourcePoint" />
            <mxPoint as="offset" />
          </mxGeometry>
        </mxCell>
        <mxCell id="jKoZZrpG-GYCvXaW42Ux-5" value="Временной промежуток" style="ellipse;whiteSpace=wrap;html=1;" vertex="1" parent="1">
          <mxGeometry x="-470" y="1039.66" width="120" height="80" as="geometry" />
        </mxCell>
        <mxCell id="jKoZZrpG-GYCvXaW42Ux-8" value="ISO" style="rounded=0;orthogonalLoop=1;jettySize=auto;html=1;exitX=0.5;exitY=1;exitDx=0;exitDy=0;entryX=0.5;entryY=0;entryDx=0;entryDy=0;" edge="1" parent="1" target="jKoZZrpG-GYCvXaW42Ux-9" source="TmZbyOTy4tZnF4ygVeuB-4">
          <mxGeometry relative="1" as="geometry">
            <mxPoint x="940" y="1270" as="targetPoint" />
            <mxPoint x="880" y="1060" as="sourcePoint" />
          </mxGeometry>
        </mxCell>
        <mxCell id="jKoZZrpG-GYCvXaW42Ux-9" value="Монумент" style="ellipse;whiteSpace=wrap;html=1;" vertex="1" parent="1">
          <mxGeometry x="800" y="1190" width="120" height="80" as="geometry" />
        </mxCell>
        <mxCell id="jKoZZrpG-GYCvXaW42Ux-10" value="Part of" style="rounded=0;orthogonalLoop=1;jettySize=auto;html=1;exitX=0.5;exitY=1;exitDx=0;exitDy=0;entryX=0.5;entryY=0;entryDx=0;entryDy=0;" edge="1" parent="1" target="jKoZZrpG-GYCvXaW42Ux-11" source="TmZbyOTy4tZnF4ygVeuB-4">
          <mxGeometry relative="1" as="geometry">
            <mxPoint x="890" y="1363.55" as="targetPoint" />
            <mxPoint x="770" y="943.55" as="sourcePoint" />
          </mxGeometry>
        </mxCell>
        <mxCell id="jKoZZrpG-GYCvXaW42Ux-11" value="Скульптура" style="ellipse;whiteSpace=wrap;html=1;" vertex="1" parent="1">
          <mxGeometry x="630" y="1260" width="120" height="80" as="geometry" />
        </mxCell>
        <mxCell id="jKoZZrpG-GYCvXaW42Ux-14" value="ISA" style="rounded=0;orthogonalLoop=1;jettySize=auto;html=1;exitX=0.5;exitY=1;exitDx=0;exitDy=0;entryX=0.5;entryY=0;entryDx=0;entryDy=0;" edge="1" parent="1" target="jKoZZrpG-GYCvXaW42Ux-15" source="TmZbyOTy4tZnF4ygVeuB-1">
          <mxGeometry x="-0.0032" relative="1" as="geometry">
            <mxPoint x="1410" y="1420" as="targetPoint" />
            <mxPoint x="1350" y="1210" as="sourcePoint" />
            <mxPoint as="offset" />
          </mxGeometry>
        </mxCell>
        <mxCell id="jKoZZrpG-GYCvXaW42Ux-15" value="Поэт" style="ellipse;whiteSpace=wrap;html=1;" vertex="1" parent="1">
          <mxGeometry x="1190" y="1260" width="120" height="80" as="geometry" />
        </mxCell>
        <mxCell id="jKoZZrpG-GYCvXaW42Ux-20" value="Part of" style="rounded=0;orthogonalLoop=1;jettySize=auto;html=1;exitX=0.5;exitY=1;exitDx=0;exitDy=0;entryX=0.5;entryY=0;entryDx=0;entryDy=0;" edge="1" parent="1" target="jKoZZrpG-GYCvXaW42Ux-21" source="TmZbyOTy4tZnF4ygVeuB-1">
          <mxGeometry relative="1" as="geometry">
            <mxPoint x="1240" y="1470" as="targetPoint" />
            <mxPoint x="1099.9999999999995" y="940" as="sourcePoint" />
          </mxGeometry>
        </mxCell>
        <mxCell id="jKoZZrpG-GYCvXaW42Ux-21" value="Русская Литература" style="ellipse;whiteSpace=wrap;html=1;" vertex="1" parent="1">
          <mxGeometry x="1000" y="1280" width="120" height="80" as="geometry" />
        </mxCell>
        <mxCell id="jKoZZrpG-GYCvXaW42Ux-23" value="Part of" style="rounded=0;orthogonalLoop=1;jettySize=auto;html=1;exitX=0.5;exitY=1;exitDx=0;exitDy=0;entryX=0.5;entryY=0;entryDx=0;entryDy=0;" edge="1" parent="1" target="jKoZZrpG-GYCvXaW42Ux-25" source="jKoZZrpG-GYCvXaW42Ux-21">
          <mxGeometry relative="1" as="geometry">
            <mxPoint x="1469.9999999999995" y="1650" as="targetPoint" />
            <mxPoint x="1370" y="1500" as="sourcePoint" />
          </mxGeometry>
        </mxCell>
        <mxCell id="jKoZZrpG-GYCvXaW42Ux-27" value="Part of" style="rounded=0;orthogonalLoop=1;jettySize=auto;html=1;exitX=0.5;exitY=1;exitDx=0;exitDy=0;entryX=0.5;entryY=0;entryDx=0;entryDy=0;" edge="1" parent="1" target="jKoZZrpG-GYCvXaW42Ux-28" source="TmZbyOTy4tZnF4ygVeuB-2">
          <mxGeometry relative="1" as="geometry">
            <mxPoint x="190" y="1489" as="targetPoint" />
            <mxPoint x="376" y="1169" as="sourcePoint" />
          </mxGeometry>
        </mxCell>
        <mxCell id="jKoZZrpG-GYCvXaW42Ux-28" value="Город" style="ellipse;whiteSpace=wrap;html=1;" vertex="1" parent="1">
          <mxGeometry x="291" y="1480" width="120" height="80" as="geometry" />
        </mxCell>
        <mxCell id="jKoZZrpG-GYCvXaW42Ux-30" value="Part of" style="rounded=0;orthogonalLoop=1;jettySize=auto;html=1;exitX=0.5;exitY=1;exitDx=0;exitDy=0;entryX=0.5;entryY=0;entryDx=0;entryDy=0;" edge="1" parent="1" target="jKoZZrpG-GYCvXaW42Ux-31" source="TmZbyOTy4tZnF4ygVeuB-2">
          <mxGeometry relative="1" as="geometry">
            <mxPoint x="430" y="1480" as="targetPoint" />
            <mxPoint x="370" y="1270" as="sourcePoint" />
          </mxGeometry>
        </mxCell>
        <mxCell id="jKoZZrpG-GYCvXaW42Ux-31" value="Центр" style="ellipse;whiteSpace=wrap;html=1;" vertex="1" parent="1">
          <mxGeometry x="460" y="1400" width="120" height="80" as="geometry" />
        </mxCell>
        <mxCell id="jKoZZrpG-GYCvXaW42Ux-33" value="ACO" style="rounded=0;orthogonalLoop=1;jettySize=auto;html=1;exitX=0.5;exitY=1;exitDx=0;exitDy=0;entryX=0.5;entryY=0;entryDx=0;entryDy=0;" edge="1" parent="1" target="jKoZZrpG-GYCvXaW42Ux-34" source="jKoZZrpG-GYCvXaW42Ux-31">
          <mxGeometry relative="1" as="geometry">
            <mxPoint x="635" y="1710" as="targetPoint" />
            <mxPoint x="495" y="1400" as="sourcePoint" />
          </mxGeometry>
        </mxCell>
        <mxCell id="jKoZZrpG-GYCvXaW42Ux-34" value="Географический центр" style="ellipse;whiteSpace=wrap;html=1;" vertex="1" parent="1">
          <mxGeometry x="600" y="1640" width="120" height="80" as="geometry" />
        </mxCell>
        <mxCell id="jKoZZrpG-GYCvXaW42Ux-37" value="Part of" style="rounded=0;orthogonalLoop=1;jettySize=auto;html=1;exitX=0.5;exitY=1;exitDx=0;exitDy=0;entryX=0.5;entryY=0;entryDx=0;entryDy=0;" edge="1" parent="1" target="jKoZZrpG-GYCvXaW42Ux-38" source="jKoZZrpG-GYCvXaW42Ux-31">
          <mxGeometry relative="1" as="geometry">
            <mxPoint x="500" y="1810" as="targetPoint" />
            <mxPoint x="440" y="1600" as="sourcePoint" />
          </mxGeometry>
        </mxCell>
        <mxCell id="jKoZZrpG-GYCvXaW42Ux-38" value="Геометрия" style="ellipse;whiteSpace=wrap;html=1;" vertex="1" parent="1">
          <mxGeometry x="500" y="1730.16" width="120" height="80" as="geometry" />
        </mxCell>
        <mxCell id="jKoZZrpG-GYCvXaW42Ux-40" value="Объект" style="rounded=0;orthogonalLoop=1;jettySize=auto;html=1;exitX=0.5;exitY=1;exitDx=0;exitDy=0;entryX=0.5;entryY=0;entryDx=0;entryDy=0;" edge="1" parent="1" target="jKoZZrpG-GYCvXaW42Ux-41" source="TmZbyOTy4tZnF4ygVeuB-40">
          <mxGeometry relative="1" as="geometry">
            <mxPoint x="79" y="989.66" as="targetPoint" />
            <mxPoint x="-61" y="569.66" as="sourcePoint" />
          </mxGeometry>
        </mxCell>
        <mxCell id="jKoZZrpG-GYCvXaW42Ux-41" value="Год" style="ellipse;whiteSpace=wrap;html=1;" vertex="1" parent="1">
          <mxGeometry x="110" y="939.9999999999999" width="120" height="80" as="geometry" />
        </mxCell>
        <mxCell id="jKoZZrpG-GYCvXaW42Ux-43" value="АКО" style="rounded=0;orthogonalLoop=1;jettySize=auto;html=1;exitX=0.5;exitY=1;exitDx=0;exitDy=0;entryX=0.5;entryY=0;entryDx=0;entryDy=0;" edge="1" parent="1" target="jKoZZrpG-GYCvXaW42Ux-44" source="jKoZZrpG-GYCvXaW42Ux-41">
          <mxGeometry relative="1" as="geometry">
            <mxPoint x="130" y="1226.8200000000002" as="targetPoint" />
            <mxPoint x="-50" y="876.8199999999999" as="sourcePoint" />
          </mxGeometry>
        </mxCell>
        <mxCell id="jKoZZrpG-GYCvXaW42Ux-44" value="Время" style="ellipse;whiteSpace=wrap;html=1;" vertex="1" parent="1">
          <mxGeometry x="190" y="1190.16" width="120" height="80" as="geometry" />
        </mxCell>
        <mxCell id="jKoZZrpG-GYCvXaW42Ux-46" value="Part of" style="rounded=0;orthogonalLoop=1;jettySize=auto;html=1;exitX=0.5;exitY=1;exitDx=0;exitDy=0;entryX=0.5;entryY=0;entryDx=0;entryDy=0;" edge="1" parent="1" target="jKoZZrpG-GYCvXaW42Ux-47" source="jKoZZrpG-GYCvXaW42Ux-41">
          <mxGeometry relative="1" as="geometry">
            <mxPoint x="100" y="1386.8200000000002" as="targetPoint" />
            <mxPoint x="-50" y="936.8199999999999" as="sourcePoint" />
          </mxGeometry>
        </mxCell>
        <mxCell id="jKoZZrpG-GYCvXaW42Ux-47" value="Десятилетие" style="ellipse;whiteSpace=wrap;html=1;" vertex="1" parent="1">
          <mxGeometry x="60" y="1340" width="120" height="80" as="geometry" />
        </mxCell>
        <mxCell id="jKoZZrpG-GYCvXaW42Ux-48" value="Has part" style="rounded=0;orthogonalLoop=1;jettySize=auto;html=1;exitX=0.5;exitY=1;exitDx=0;exitDy=0;entryX=0.5;entryY=0;entryDx=0;entryDy=0;" edge="1" parent="1" target="jKoZZrpG-GYCvXaW42Ux-49" source="jKoZZrpG-GYCvXaW42Ux-41">
          <mxGeometry relative="1" as="geometry">
            <mxPoint x="80" y="1516.8200000000002" as="targetPoint" />
            <mxPoint x="30" y="1082.8200000000002" as="sourcePoint" />
          </mxGeometry>
        </mxCell>
        <mxCell id="jKoZZrpG-GYCvXaW42Ux-49" value="Месяц" style="ellipse;whiteSpace=wrap;html=1;" vertex="1" parent="1">
          <mxGeometry x="-150" y="1470.66" width="120" height="80" as="geometry" />
        </mxCell>
        <mxCell id="jKoZZrpG-GYCvXaW42Ux-50" value="Has part" style="rounded=0;orthogonalLoop=1;jettySize=auto;html=1;exitX=0.5;exitY=1;exitDx=0;exitDy=0;entryX=0.5;entryY=0;entryDx=0;entryDy=0;" edge="1" parent="1" target="jKoZZrpG-GYCvXaW42Ux-51" source="jKoZZrpG-GYCvXaW42Ux-56">
          <mxGeometry x="0.0056" relative="1" as="geometry">
            <mxPoint x="-520" y="1570" as="targetPoint" />
            <mxPoint x="-580" y="1360" as="sourcePoint" />
            <mxPoint as="offset" />
          </mxGeometry>
        </mxCell>
        <mxCell id="jKoZZrpG-GYCvXaW42Ux-51" value="День" style="ellipse;whiteSpace=wrap;html=1;" vertex="1" parent="1">
          <mxGeometry x="-410" y="1780" width="120" height="80" as="geometry" />
        </mxCell>
        <mxCell id="jKoZZrpG-GYCvXaW42Ux-53" value="Has part" style="rounded=0;orthogonalLoop=1;jettySize=auto;html=1;exitX=0.5;exitY=1;exitDx=0;exitDy=0;entryX=0.5;entryY=0;entryDx=0;entryDy=0;" edge="1" parent="1" target="jKoZZrpG-GYCvXaW42Ux-54" source="jKoZZrpG-GYCvXaW42Ux-51">
          <mxGeometry relative="1" as="geometry">
            <mxPoint x="-311" y="2010.1599999999999" as="targetPoint" />
            <mxPoint x="-371" y="1800.16" as="sourcePoint" />
          </mxGeometry>
        </mxCell>
        <mxCell id="jKoZZrpG-GYCvXaW42Ux-54" value="Час" style="ellipse;whiteSpace=wrap;html=1;" vertex="1" parent="1">
          <mxGeometry x="-410" y="1970" width="120" height="80" as="geometry" />
        </mxCell>
        <mxCell id="jKoZZrpG-GYCvXaW42Ux-55" value="Has part" style="rounded=0;orthogonalLoop=1;jettySize=auto;html=1;entryX=0.5;entryY=0;entryDx=0;entryDy=0;exitX=0.5;exitY=1;exitDx=0;exitDy=0;" edge="1" parent="1" target="jKoZZrpG-GYCvXaW42Ux-56" source="jKoZZrpG-GYCvXaW42Ux-49">
          <mxGeometry x="0.0015" relative="1" as="geometry">
            <mxPoint x="-490" y="1850" as="targetPoint" />
            <mxPoint x="-550" y="1640" as="sourcePoint" />
            <mxPoint as="offset" />
          </mxGeometry>
        </mxCell>
        <mxCell id="jKoZZrpG-GYCvXaW42Ux-56" value="Неделя" style="ellipse;whiteSpace=wrap;html=1;" vertex="1" parent="1">
          <mxGeometry x="-410" y="1600" width="120" height="80" as="geometry" />
        </mxCell>
        <mxCell id="jKoZZrpG-GYCvXaW42Ux-58" value="Has part" style="rounded=0;orthogonalLoop=1;jettySize=auto;html=1;exitX=0.5;exitY=1;exitDx=0;exitDy=0;entryX=0.5;entryY=0;entryDx=0;entryDy=0;" edge="1" parent="1" target="jKoZZrpG-GYCvXaW42Ux-59" source="jKoZZrpG-GYCvXaW42Ux-54">
          <mxGeometry relative="1" as="geometry">
            <mxPoint x="-370" y="2530" as="targetPoint" />
            <mxPoint x="-430" y="2320" as="sourcePoint" />
            <mxPoint as="offset" />
          </mxGeometry>
        </mxCell>
        <mxCell id="jKoZZrpG-GYCvXaW42Ux-59" value="Минута" style="ellipse;whiteSpace=wrap;html=1;" vertex="1" parent="1">
          <mxGeometry x="-410" y="2150" width="120" height="80" as="geometry" />
        </mxCell>
        <mxCell id="jKoZZrpG-GYCvXaW42Ux-60" value="Part of" style="rounded=0;orthogonalLoop=1;jettySize=auto;html=1;exitX=0.5;exitY=1;exitDx=0;exitDy=0;entryX=0.5;entryY=0;entryDx=0;entryDy=0;" edge="1" parent="1" target="jKoZZrpG-GYCvXaW42Ux-61" source="jKoZZrpG-GYCvXaW42Ux-59">
          <mxGeometry relative="1" as="geometry">
            <mxPoint x="-390" y="2388" as="targetPoint" />
            <mxPoint x="-340" y="2248" as="sourcePoint" />
          </mxGeometry>
        </mxCell>
        <mxCell id="jKoZZrpG-GYCvXaW42Ux-61" value="Секунда" style="ellipse;whiteSpace=wrap;html=1;" vertex="1" parent="1">
          <mxGeometry x="-410" y="2328" width="120" height="80" as="geometry" />
        </mxCell>
        <mxCell id="jKoZZrpG-GYCvXaW42Ux-63" value="Part of" style="rounded=0;orthogonalLoop=1;jettySize=auto;html=1;exitX=0.5;exitY=1;exitDx=0;exitDy=0;entryX=0.5;entryY=0;entryDx=0;entryDy=0;" edge="1" parent="1" target="jKoZZrpG-GYCvXaW42Ux-64" source="jKoZZrpG-GYCvXaW42Ux-11">
          <mxGeometry relative="1" as="geometry">
            <mxPoint x="980" y="1590" as="targetPoint" />
            <mxPoint x="920" y="1380" as="sourcePoint" />
          </mxGeometry>
        </mxCell>
        <mxCell id="jKoZZrpG-GYCvXaW42Ux-64" value="Искусство" style="ellipse;whiteSpace=wrap;html=1;" vertex="1" parent="1">
          <mxGeometry x="830" y="2310" width="120" height="80" as="geometry" />
        </mxCell>
        <mxCell id="jKoZZrpG-GYCvXaW42Ux-65" value="Part of" style="rounded=0;orthogonalLoop=1;jettySize=auto;html=1;exitX=0.5;exitY=1;exitDx=0;exitDy=0;entryX=0.5;entryY=0;entryDx=0;entryDy=0;" edge="1" parent="1" target="jKoZZrpG-GYCvXaW42Ux-66" source="jKoZZrpG-GYCvXaW42Ux-15">
          <mxGeometry relative="1" as="geometry">
            <mxPoint x="1660" y="1590" as="targetPoint" />
            <mxPoint x="1600" y="1380" as="sourcePoint" />
          </mxGeometry>
        </mxCell>
        <mxCell id="jKoZZrpG-GYCvXaW42Ux-68" style="rounded=0;orthogonalLoop=1;jettySize=auto;html=1;exitX=0.5;exitY=1;exitDx=0;exitDy=0;entryX=0.5;entryY=0;entryDx=0;entryDy=0;" edge="1" parent="1" source="jKoZZrpG-GYCvXaW42Ux-25" target="jKoZZrpG-GYCvXaW42Ux-64">
          <mxGeometry relative="1" as="geometry" />
        </mxCell>
        <mxCell id="jKoZZrpG-GYCvXaW42Ux-66" value="Поэтия" style="ellipse;whiteSpace=wrap;html=1;" vertex="1" parent="1">
          <mxGeometry x="1240" y="1460" width="120" height="80" as="geometry" />
        </mxCell>
        <mxCell id="jKoZZrpG-GYCvXaW42Ux-71" value="Part of" style="rounded=0;orthogonalLoop=1;jettySize=auto;html=1;exitX=0.5;exitY=1;exitDx=0;exitDy=0;entryX=0.5;entryY=0;entryDx=0;entryDy=0;" edge="1" parent="1" target="jKoZZrpG-GYCvXaW42Ux-72" source="jKoZZrpG-GYCvXaW42Ux-21">
          <mxGeometry relative="1" as="geometry">
            <mxPoint x="1340" y="1620" as="targetPoint" />
            <mxPoint x="1280" y="1410" as="sourcePoint" />
          </mxGeometry>
        </mxCell>
        <mxCell id="jKoZZrpG-GYCvXaW42Ux-72" value="Литература" style="ellipse;whiteSpace=wrap;html=1;" vertex="1" parent="1">
          <mxGeometry x="1040" y="1480" width="120" height="80" as="geometry" />
        </mxCell>
        <mxCell id="jKoZZrpG-GYCvXaW42Ux-74" value="Has part" style="rounded=0;orthogonalLoop=1;jettySize=auto;html=1;exitX=0.5;exitY=1;exitDx=0;exitDy=0;entryX=0.5;entryY=0;entryDx=0;entryDy=0;" edge="1" parent="1" target="jKoZZrpG-GYCvXaW42Ux-75" source="jKoZZrpG-GYCvXaW42Ux-72">
          <mxGeometry relative="1" as="geometry">
            <mxPoint x="1450" y="1690" as="targetPoint" />
            <mxPoint x="1390" y="1480" as="sourcePoint" />
          </mxGeometry>
        </mxCell>
        <mxCell id="jKoZZrpG-GYCvXaW42Ux-75" value="Сказки" style="ellipse;whiteSpace=wrap;html=1;" vertex="1" parent="1">
          <mxGeometry x="980" y="1810.16" width="120" height="80" as="geometry" />
        </mxCell>
        <mxCell id="jKoZZrpG-GYCvXaW42Ux-78" value="" style="rounded=0;orthogonalLoop=1;jettySize=auto;html=1;exitX=0.5;exitY=1;exitDx=0;exitDy=0;entryX=0.5;entryY=0;entryDx=0;entryDy=0;" edge="1" parent="1" source="jKoZZrpG-GYCvXaW42Ux-66" target="jKoZZrpG-GYCvXaW42Ux-64">
          <mxGeometry relative="1" as="geometry">
            <mxPoint x="1380" y="1520" as="sourcePoint" />
            <mxPoint x="730" y="1530" as="targetPoint" />
          </mxGeometry>
        </mxCell>
        <mxCell id="jKoZZrpG-GYCvXaW42Ux-79" value="Part of" style="edgeLabel;html=1;align=center;verticalAlign=middle;resizable=0;points=[];" vertex="1" connectable="0" parent="jKoZZrpG-GYCvXaW42Ux-78">
          <mxGeometry x="-0.0079" y="2" relative="1" as="geometry">
            <mxPoint as="offset" />
          </mxGeometry>
        </mxCell>
        <mxCell id="jKoZZrpG-GYCvXaW42Ux-25" value="Россия" style="ellipse;whiteSpace=wrap;html=1;" vertex="1" parent="1">
          <mxGeometry x="850" y="1450" width="120" height="80" as="geometry" />
        </mxCell>
        <mxCell id="jKoZZrpG-GYCvXaW42Ux-81" value="ISA" style="rounded=0;orthogonalLoop=1;jettySize=auto;html=1;exitX=0.5;exitY=1;exitDx=0;exitDy=0;entryX=0.5;entryY=0;entryDx=0;entryDy=0;" edge="1" parent="1" target="jKoZZrpG-GYCvXaW42Ux-82" source="TmZbyOTy4tZnF4ygVeuB-1">
          <mxGeometry relative="1" as="geometry">
            <mxPoint x="1450" y="1240" as="targetPoint" />
            <mxPoint x="960" y="977.1600000000003" as="sourcePoint" />
          </mxGeometry>
        </mxCell>
        <mxCell id="jKoZZrpG-GYCvXaW42Ux-82" value="Писатель" style="ellipse;whiteSpace=wrap;html=1;" vertex="1" parent="1">
          <mxGeometry x="1390" y="1230" width="120" height="80" as="geometry" />
        </mxCell>
        <mxCell id="jKoZZrpG-GYCvXaW42Ux-84" value="Has part" style="rounded=0;orthogonalLoop=1;jettySize=auto;html=1;exitX=0.5;exitY=1;exitDx=0;exitDy=0;entryX=0.5;entryY=0;entryDx=0;entryDy=0;" edge="1" parent="1" target="jKoZZrpG-GYCvXaW42Ux-85" source="jKoZZrpG-GYCvXaW42Ux-66">
          <mxGeometry relative="1" as="geometry">
            <mxPoint x="1340" y="1880" as="targetPoint" />
            <mxPoint x="1280" y="1670" as="sourcePoint" />
          </mxGeometry>
        </mxCell>
        <mxCell id="jKoZZrpG-GYCvXaW42Ux-85" value="Стихи" style="ellipse;whiteSpace=wrap;html=1;" vertex="1" parent="1">
          <mxGeometry x="1260" y="1920" width="120" height="80" as="geometry" />
        </mxCell>
        <mxCell id="jKoZZrpG-GYCvXaW42Ux-90" value="Part of" style="rounded=0;orthogonalLoop=1;jettySize=auto;html=1;exitX=0.5;exitY=1;exitDx=0;exitDy=0;entryX=0.5;entryY=0;entryDx=0;entryDy=0;" edge="1" parent="1" target="jKoZZrpG-GYCvXaW42Ux-91" source="TmZbyOTy4tZnF4ygVeuB-30">
          <mxGeometry relative="1" as="geometry">
            <mxPoint x="1320" y="700" as="targetPoint" />
            <mxPoint x="1170" y="360" as="sourcePoint" />
          </mxGeometry>
        </mxCell>
        <mxCell id="jKoZZrpG-GYCvXaW42Ux-91" value="Администрация" style="ellipse;whiteSpace=wrap;html=1;" vertex="1" parent="1">
          <mxGeometry x="1220" y="760" width="120" height="80" as="geometry" />
        </mxCell>
        <mxCell id="jKoZZrpG-GYCvXaW42Ux-94" value="Has part" style="rounded=0;orthogonalLoop=1;jettySize=auto;html=1;exitX=0.5;exitY=1;exitDx=0;exitDy=0;entryX=0.5;entryY=0;entryDx=0;entryDy=0;" edge="1" parent="1" target="jKoZZrpG-GYCvXaW42Ux-95" source="TmZbyOTy4tZnF4ygVeuB-4">
          <mxGeometry relative="1" as="geometry">
            <mxPoint x="1210" y="1120" as="targetPoint" />
            <mxPoint x="1150" y="910" as="sourcePoint" />
          </mxGeometry>
        </mxCell>
        <mxCell id="jKoZZrpG-GYCvXaW42Ux-95" value="Табличка" style="ellipse;whiteSpace=wrap;html=1;" vertex="1" parent="1">
          <mxGeometry x="1070" y="1089" width="120" height="80" as="geometry" />
        </mxCell>
        <mxCell id="jKoZZrpG-GYCvXaW42Ux-98" value="Has part" style="rounded=0;orthogonalLoop=1;jettySize=auto;html=1;exitX=0.5;exitY=1;exitDx=0;exitDy=0;entryX=0.5;entryY=0;entryDx=0;entryDy=0;" edge="1" parent="1" target="jKoZZrpG-GYCvXaW42Ux-99" source="TmZbyOTy4tZnF4ygVeuB-4">
          <mxGeometry relative="1" as="geometry">
            <mxPoint x="1220" y="955" as="targetPoint" />
            <mxPoint x="610" y="585" as="sourcePoint" />
          </mxGeometry>
        </mxCell>
        <mxCell id="jKoZZrpG-GYCvXaW42Ux-99" value="Постамент" style="ellipse;whiteSpace=wrap;html=1;" vertex="1" parent="1">
          <mxGeometry x="1190" y="1020" width="120" height="80" as="geometry" />
        </mxCell>
        <mxCell id="jKoZZrpG-GYCvXaW42Ux-100" value="Has part" style="rounded=0;orthogonalLoop=1;jettySize=auto;html=1;exitX=0.5;exitY=1;exitDx=0;exitDy=0;entryX=0.5;entryY=0;entryDx=0;entryDy=0;" edge="1" parent="1" target="jKoZZrpG-GYCvXaW42Ux-101" source="TmZbyOTy4tZnF4ygVeuB-30">
          <mxGeometry relative="1" as="geometry">
            <mxPoint x="1360" y="810" as="targetPoint" />
            <mxPoint x="1300" y="600" as="sourcePoint" />
            <Array as="points">
              <mxPoint x="1320" y="570" />
            </Array>
          </mxGeometry>
        </mxCell>
        <mxCell id="jKoZZrpG-GYCvXaW42Ux-101" value="Городской совет" style="ellipse;whiteSpace=wrap;html=1;" vertex="1" parent="1">
          <mxGeometry x="1500" y="720" width="120" height="80" as="geometry" />
        </mxCell>
        <mxCell id="jKoZZrpG-GYCvXaW42Ux-103" value="Мер" style="ellipse;whiteSpace=wrap;html=1;" vertex="1" parent="1">
          <mxGeometry x="1640" y="650" width="120" height="80" as="geometry" />
        </mxCell>
        <mxCell id="jKoZZrpG-GYCvXaW42Ux-106" value="Has part" style="rounded=0;orthogonalLoop=1;jettySize=auto;html=1;exitX=0.5;exitY=1;exitDx=0;exitDy=0;entryX=0.5;entryY=0;entryDx=0;entryDy=0;" edge="1" parent="1" target="jKoZZrpG-GYCvXaW42Ux-107" source="TmZbyOTy4tZnF4ygVeuB-28">
          <mxGeometry relative="1" as="geometry">
            <mxPoint x="1600" y="1050" as="targetPoint" />
            <mxPoint x="1540" y="840" as="sourcePoint" />
          </mxGeometry>
        </mxCell>
        <mxCell id="jKoZZrpG-GYCvXaW42Ux-107" value="Бюджет" style="ellipse;whiteSpace=wrap;html=1;" vertex="1" parent="1">
          <mxGeometry x="2020" y="1060.16" width="120" height="80" as="geometry" />
        </mxCell>
        <mxCell id="jKoZZrpG-GYCvXaW42Ux-109" value="AKO" style="rounded=0;orthogonalLoop=1;jettySize=auto;html=1;exitX=0.5;exitY=1;exitDx=0;exitDy=0;entryX=0.5;entryY=0;entryDx=0;entryDy=0;" edge="1" parent="1" target="jKoZZrpG-GYCvXaW42Ux-110" source="jKoZZrpG-GYCvXaW42Ux-107">
          <mxGeometry relative="1" as="geometry">
            <mxPoint x="2220" y="1330.16" as="targetPoint" />
            <mxPoint x="2100" y="1060.16" as="sourcePoint" />
          </mxGeometry>
        </mxCell>
        <mxCell id="jKoZZrpG-GYCvXaW42Ux-110" value="Средства" style="ellipse;whiteSpace=wrap;html=1;" vertex="1" parent="1">
          <mxGeometry x="2200" y="1270.16" width="120" height="80" as="geometry" />
        </mxCell>
        <mxCell id="jKoZZrpG-GYCvXaW42Ux-113" value="AKO" style="rounded=0;orthogonalLoop=1;jettySize=auto;html=1;exitX=0.5;exitY=1;exitDx=0;exitDy=0;entryX=0.5;entryY=0;entryDx=0;entryDy=0;" edge="1" parent="1" target="jKoZZrpG-GYCvXaW42Ux-114" source="jKoZZrpG-GYCvXaW42Ux-110">
          <mxGeometry relative="1" as="geometry">
            <mxPoint x="2360" y="1600.16" as="targetPoint" />
            <mxPoint x="2300" y="1390.16" as="sourcePoint" />
          </mxGeometry>
        </mxCell>
        <mxCell id="jKoZZrpG-GYCvXaW42Ux-114" value="Полномочия" style="ellipse;whiteSpace=wrap;html=1;" vertex="1" parent="1">
          <mxGeometry x="2150" y="1590.16" width="120" height="80" as="geometry" />
        </mxCell>
        <mxCell id="jKoZZrpG-GYCvXaW42Ux-115" value="AKO" style="rounded=0;orthogonalLoop=1;jettySize=auto;html=1;exitX=0.5;exitY=1;exitDx=0;exitDy=0;entryX=0.5;entryY=0;entryDx=0;entryDy=0;" edge="1" parent="1" target="jKoZZrpG-GYCvXaW42Ux-116" source="jKoZZrpG-GYCvXaW42Ux-110">
          <mxGeometry relative="1" as="geometry">
            <mxPoint x="2408" y="1670.16" as="targetPoint" />
            <mxPoint x="2348" y="1460.16" as="sourcePoint" />
          </mxGeometry>
        </mxCell>
        <mxCell id="jKoZZrpG-GYCvXaW42Ux-116" value="Бюджет" style="ellipse;whiteSpace=wrap;html=1;" vertex="1" parent="1">
          <mxGeometry x="2270" y="1730.16" width="120" height="80" as="geometry" />
        </mxCell>
        <mxCell id="jKoZZrpG-GYCvXaW42Ux-118" value="АКО" style="rounded=0;orthogonalLoop=1;jettySize=auto;html=1;exitX=0.5;exitY=1;exitDx=0;exitDy=0;entryX=0.5;entryY=0;entryDx=0;entryDy=0;" edge="1" parent="1" target="jKoZZrpG-GYCvXaW42Ux-119" source="TmZbyOTy4tZnF4ygVeuB-4">
          <mxGeometry relative="1" as="geometry">
            <mxPoint x="1360" y="1040" as="targetPoint" />
            <mxPoint x="1300" y="830" as="sourcePoint" />
          </mxGeometry>
        </mxCell>
        <mxCell id="jKoZZrpG-GYCvXaW42Ux-119" value="Территория" style="ellipse;whiteSpace=wrap;html=1;" vertex="1" parent="1">
          <mxGeometry x="1340" y="980" width="120" height="90" as="geometry" />
        </mxCell>
        <mxCell id="jKoZZrpG-GYCvXaW42Ux-121" value="АКО" style="rounded=0;orthogonalLoop=1;jettySize=auto;html=1;exitX=0.5;exitY=1;exitDx=0;exitDy=0;entryX=0.5;entryY=0;entryDx=0;entryDy=0;" edge="1" parent="1" target="jKoZZrpG-GYCvXaW42Ux-122" source="jKoZZrpG-GYCvXaW42Ux-119">
          <mxGeometry relative="1" as="geometry">
            <mxPoint x="1650" y="1310" as="targetPoint" />
            <mxPoint x="1590" y="1100" as="sourcePoint" />
          </mxGeometry>
        </mxCell>
        <mxCell id="jKoZZrpG-GYCvXaW42Ux-122" value="Парк" style="ellipse;whiteSpace=wrap;html=1;" vertex="1" parent="1">
          <mxGeometry x="1748" y="1220" width="120" height="80" as="geometry" />
        </mxCell>
        <mxCell id="jKoZZrpG-GYCvXaW42Ux-123" value="АКО" style="rounded=0;orthogonalLoop=1;jettySize=auto;html=1;exitX=0.5;exitY=1;exitDx=0;exitDy=0;entryX=0.5;entryY=0;entryDx=0;entryDy=0;" edge="1" parent="1" target="jKoZZrpG-GYCvXaW42Ux-124" source="jKoZZrpG-GYCvXaW42Ux-119">
          <mxGeometry relative="1" as="geometry">
            <mxPoint x="1640" y="1410" as="targetPoint" />
            <mxPoint x="1580" y="1200" as="sourcePoint" />
          </mxGeometry>
        </mxCell>
        <mxCell id="jKoZZrpG-GYCvXaW42Ux-124" value="Сквер" style="ellipse;whiteSpace=wrap;html=1;" vertex="1" parent="1">
          <mxGeometry x="1620" y="1350" width="120" height="80" as="geometry" />
        </mxCell>
        <mxCell id="jKoZZrpG-GYCvXaW42Ux-125" value="Has part" style="rounded=0;orthogonalLoop=1;jettySize=auto;html=1;exitX=0.5;exitY=1;exitDx=0;exitDy=0;entryX=0.5;entryY=0;entryDx=0;entryDy=0;" edge="1" parent="1" target="jKoZZrpG-GYCvXaW42Ux-126" source="jKoZZrpG-GYCvXaW42Ux-122">
          <mxGeometry relative="1" as="geometry">
            <mxPoint x="1908" y="1570" as="targetPoint" />
            <mxPoint x="1848" y="1360" as="sourcePoint" />
          </mxGeometry>
        </mxCell>
        <mxCell id="jKoZZrpG-GYCvXaW42Ux-126" value="Скамейка" style="ellipse;whiteSpace=wrap;html=1;" vertex="1" parent="1">
          <mxGeometry x="1888" y="1510" width="120" height="80" as="geometry" />
        </mxCell>
        <mxCell id="jKoZZrpG-GYCvXaW42Ux-127" value="Has part" style="rounded=0;orthogonalLoop=1;jettySize=auto;html=1;exitX=0.5;exitY=1;exitDx=0;exitDy=0;entryX=0.5;entryY=0;entryDx=0;entryDy=0;" edge="1" parent="1" target="jKoZZrpG-GYCvXaW42Ux-128" source="jKoZZrpG-GYCvXaW42Ux-122">
          <mxGeometry x="0.0049" relative="1" as="geometry">
            <mxPoint x="1808" y="1720" as="targetPoint" />
            <mxPoint x="1748" y="1510" as="sourcePoint" />
            <mxPoint as="offset" />
          </mxGeometry>
        </mxCell>
        <mxCell id="jKoZZrpG-GYCvXaW42Ux-128" value="Клумба" style="ellipse;whiteSpace=wrap;html=1;" vertex="1" parent="1">
          <mxGeometry x="1788" y="1660" width="120" height="80" as="geometry" />
        </mxCell>
      </root>
    </mxGraphModel>
  </diagram>
</mxfile>
